<svg xmlns="http://www.w3.org/2000/svg" width="172.02" height="17.01" viewBox="0 0 172.02 17.01"><g transform="translate(-4088.586 -1314.5)"><path d="M4094.692,1328.36h18.076v3.15h-19c-3.708,0-5.186-1.89-5.186-4.894V1314.5h4.7v12.115c0,1.114.63,1.744,1.4,1.744" fill="#1d1d1b"></path><path d="M4135.934,1331.486v-7.246h-14.781v7.246H4116.4V1319.4c0-2.762,1.7-4.9,5.089-4.9h14.077c3.416,0,5.089,2.133,5.089,4.9v12.091Zm-13.351-13.933c-.969,0-1.43.752-1.43,1.842v1.817h14.781V1319.4c0-1.09-.461-1.842-1.478-1.842Z" fill="#1d1d1b"></path><path d="M4168.695,1319.419v12.042H4163.7v-12.042c0-.872-.436-1.72-1.429-1.72h-12.964v13.762H4144.3v-16.912h19.238a4.773,4.773,0,0,1,5.161,4.87" fill="#1d1d1b"></path><path d="M4191.424,1314.5c3.3,0,4.749,2.205,4.749,5.015v6.93c0,2.859-1.453,5.04-4.749,5.04h-19.093V1314.5Zm.267,11.945v-6.93c0-1.114-.436-1.769-1.5-1.769h-13.375v10.516h13.375c1.066,0,1.5-.7,1.5-1.817" fill="#1d1d1b"></path><rect width="4.87" height="17.009" transform="translate(4199.811 1314.5)" fill="#1d1d1b"></rect><path d="M4227.845,1331.486v-7.246h-14.78v7.246h-4.75V1319.4c0-2.762,1.7-4.9,5.089-4.9h14.077c3.417,0,5.089,2.133,5.089,4.9v12.091Zm-13.351-13.933c-.969,0-1.429.752-1.429,1.842v1.817h14.78V1319.4c0-1.09-.46-1.842-1.478-1.842Z" fill="#1d1d1b"></path><path d="M4260.606,1319.419v12.042h-4.992v-12.042c0-.872-.436-1.72-1.429-1.72h-12.963v13.762h-5.016v-16.912h19.239a4.774,4.774,0,0,1,5.161,4.87" fill="#1d1d1b"></path></g></svg>