<svg xmlns="http://www.w3.org/2000/svg" width="27.47" height="59.484" viewBox="0 0 27.47 59.484"><g transform="translate(2250.553 -2907.965) rotate(90)"><path d="M2952.582,2236.818h0a13.235,13.235,0,0,1-13.235,13.235h-18.3a12.584,12.584,0,0,1-12.585-12.584v-1.3a12.584,12.584,0,0,1,12.585-12.584h18.3A13.235,13.235,0,0,1,2952.582,2236.818Z" fill="none" stroke="#000" stroke-miterlimit="10" stroke-width="1"></path><path d="M2924.339,2236.818h0a2.585,2.585,0,0,1-2.585,2.585h-3.616a2.586,2.586,0,1,1,0-5.171h3.616A2.586,2.586,0,0,1,2924.339,2236.818Z" fill="none" stroke="#000" stroke-miterlimit="10" stroke-width="1"></path><line x2="4.065" y2="3.388" transform="translate(2956.913 2233.43)" fill="none" stroke="#000" stroke-linecap="round" stroke-linejoin="round" stroke-width="1"></line><line x1="4.065" y2="3.387" transform="translate(2956.914 2236.818)" fill="none" stroke="#000" stroke-linecap="round" stroke-linejoin="round" stroke-width="1"></line><line x2="4.065" y2="3.388" transform="translate(2962.68 2233.43)" fill="none" stroke="#000" stroke-linecap="round" stroke-linejoin="round" stroke-width="1"></line><line x1="4.065" y2="3.387" transform="translate(2962.68 2236.818)" fill="none" stroke="#000" stroke-linecap="round" stroke-linejoin="round" stroke-width="1"></line></g></svg>