<svg version="1.1" id="Layer_1" xmlns="http://www.w3.org/2000/svg" xmlns:xlink="http://www.w3.org/1999/xlink" x="0px" y="0px"
	 width="100%" viewBox="0 0 500 500" enable-background="new 0 0 500 500" xml:space="preserve">
<path fill="#000000" opacity="1.000000" stroke="none" 
	d="
M287.000000,501.000000 
	C191.333359,501.000000 96.166710,501.000000 1.000051,501.000000 
	C1.000034,334.333405 1.000034,167.666794 1.000017,1.000141 
	C167.666565,1.000094 334.333130,1.000094 500.999756,1.000047 
	C500.999847,167.666519 500.999847,334.333038 500.999939,500.999786 
	C429.833344,501.000000 358.666656,501.000000 287.000000,501.000000 
M297.989868,271.002197 
	C297.989868,271.002197 297.978516,271.080505 298.550476,271.610809 
	C298.948029,269.224792 299.345551,266.838776 299.812103,264.038666 
	C297.556641,264.920837 296.308014,265.409180 294.796082,265.277649 
	C293.571106,263.955536 292.346130,262.633423 290.472900,260.611664 
	C290.472900,264.988922 290.472900,268.086121 290.472900,271.046082 
	C292.516510,271.046082 294.322357,271.046082 296.458771,271.030579 
	C296.458771,271.030579 296.784424,270.961090 297.067322,271.561096 
	C297.419281,271.611267 297.771271,271.661469 298.123230,271.711670 
	C298.104919,271.478760 298.086609,271.245850 297.989868,271.002197 
M189.154037,215.306107 
	C186.201218,211.278183 183.258682,207.242691 180.292984,203.224258 
	C176.639359,198.273712 173.941360,191.388382 169.032700,188.932999 
	C163.935745,186.383453 156.692383,188.080414 150.386673,188.005325 
	C144.860153,187.939514 139.332214,187.991577 133.804901,187.991577 
	C133.590546,188.482452 133.376175,188.973312 133.161819,189.464188 
	C135.208694,191.505127 137.273178,193.528763 139.299103,195.590302 
	C144.847992,201.236755 148.408661,207.567062 148.013107,215.946640 
	C147.589264,224.925232 147.913330,233.939621 147.947098,242.938263 
	C147.949402,243.556000 148.253067,244.172638 148.468216,244.984650 
	C150.009277,244.770554 151.393555,244.578247 153.114426,244.339172 
	C153.114426,235.055466 153.114426,226.189041 153.114426,216.278259 
	C159.700684,225.323608 165.609787,233.512726 171.625290,241.622955 
	C172.554993,242.876419 173.954529,244.663376 175.167404,244.687866 
	C186.716293,244.921021 198.271790,244.826981 210.784256,244.826981 
	C203.298477,234.598465 196.446625,225.236145 189.154037,215.306107 
M281.373901,240.219315 
	C281.463165,241.668991 281.552429,243.118652 281.633545,244.435623 
	C291.919647,244.435623 301.801880,244.435623 311.851013,244.435623 
	C311.851013,230.198502 311.960876,216.374313 311.796631,202.553391 
	C311.731506,197.075211 313.605286,193.248795 318.911530,191.309937 
	C320.105377,190.873718 321.131866,189.979584 322.235413,189.296249 
	C322.085724,188.992615 321.936066,188.688980 321.786377,188.385345 
	C304.870239,188.385345 287.954102,188.385345 270.992523,188.385345 
	C271.063538,189.109344 270.972748,189.567764 271.150208,189.726669 
	C271.632416,190.158447 272.185822,190.659103 272.785370,190.788895 
	C280.224396,192.399445 281.606201,197.590775 281.447845,204.289642 
	C281.172302,215.944855 281.373901,227.611343 281.373901,240.219315 
M369.648743,292.524872 
	C369.648743,290.118408 369.648743,287.711945 369.648743,285.305481 
	C367.779724,286.239746 366.812195,287.563599 366.077911,289.006226 
	C362.694550,295.653290 359.496979,302.397827 355.990265,308.978149 
	C353.819092,313.052216 350.114899,315.596436 345.534241,315.701660 
	C334.432007,315.956635 323.319946,315.784515 311.783569,315.784515 
	C311.783569,305.497681 311.783569,295.436249 311.783569,285.288940 
	C301.471191,285.288940 291.592865,285.288940 281.355988,285.288940 
	C281.355988,292.547424 281.250854,299.514801 281.390778,306.477295 
	C281.494385,311.630341 279.460358,315.045868 274.435303,316.641876 
	C273.100800,317.065735 271.927338,317.996582 270.679932,318.694672 
	C270.830536,319.039856 270.981140,319.385071 271.131744,319.730255 
	C303.328705,319.730255 335.525665,319.730255 368.100922,319.730255 
	C368.593323,310.996185 369.087860,302.224701 369.648743,292.524872 
M231.994431,320.732361 
	C234.615631,320.732361 237.236832,320.732361 240.018311,320.732361 
	C240.018311,308.625854 240.018311,296.918304 240.018311,285.239197 
	C227.862900,285.239197 215.985229,285.239197 203.313141,285.239197 
	C211.963486,297.119232 220.200439,308.475433 228.534439,319.759949 
	C228.996979,320.386230 230.263062,320.419067 231.994431,320.732361 
M235.331375,225.499237 
	C235.331375,231.796555 235.331375,238.093887 235.331375,244.630249 
	C237.179489,244.630249 238.590652,244.630249 240.335724,244.630249 
	C240.335724,241.619568 240.315964,238.804916 240.339142,235.990616 
	C240.439194,223.845093 240.571320,211.699768 240.649673,199.554123 
	C240.678452,195.092636 242.894165,192.494736 247.102051,191.250061 
	C248.548492,190.822205 249.838348,189.864929 251.199738,189.149521 
	C251.035873,188.886002 250.872009,188.622498 250.708130,188.358978 
	C241.229462,188.358978 231.750778,188.358978 222.272110,188.358978 
	C222.167252,188.757446 222.062393,189.155914 221.957535,189.554382 
	C223.329498,190.066071 224.674057,190.674149 226.078003,191.073395 
	C233.642746,193.224701 235.100143,194.959137 235.268845,203.029556 
	C235.418381,210.183517 235.320206,217.342682 235.331375,225.499237 
M147.897156,303.124878 
	C146.740707,306.807159 146.480682,311.260406 144.168533,313.948730 
	C141.980453,316.492828 137.638611,317.184509 134.244019,318.690918 
	C134.377945,318.981750 134.511856,319.272583 134.645782,319.563416 
	C144.732285,319.563416 154.818802,319.563416 165.000854,319.563416 
	C164.831207,318.790680 164.861221,318.291534 164.675827,318.191467 
	C163.807739,317.722870 162.898636,317.314209 161.971191,316.973999 
	C153.653458,313.923035 152.906372,312.883575 152.863022,303.891357 
	C152.833481,297.762054 152.857361,291.632477 152.857361,285.357544 
	C150.985153,285.357544 149.497833,285.357544 147.897369,285.357544 
	C147.897369,291.220184 147.897369,296.708649 147.897156,303.124878 
M317.081757,265.531189 
	C316.161926,264.143921 315.242096,262.756653 314.142761,261.098633 
	C314.142761,264.803070 314.142761,268.281677 314.142761,271.716125 
	C316.855011,271.716125 319.298859,271.716125 323.165192,271.716125 
	C315.586365,270.063507 315.586365,270.063507 315.895264,267.219086 
	C317.658264,267.037781 319.432220,266.855316 321.206146,266.672882 
	C321.188171,266.403564 321.170197,266.134216 321.152222,265.864868 
	C320.073547,265.761505 318.994873,265.658142 317.081757,265.531189 
M191.489655,262.238159 
	C192.606339,261.988129 193.723022,261.738098 194.839706,261.488068 
	C194.779419,261.202942 194.719131,260.917847 194.658859,260.632721 
	C191.644531,260.632721 188.630219,260.632721 185.615891,260.632721 
	C185.570969,260.933777 185.526062,261.234863 185.481140,261.535919 
	C186.692001,261.904266 187.902863,262.272614 188.849457,262.560577 
	C189.103638,266.004852 189.325256,269.007690 189.546860,272.010498 
	C190.078598,271.960449 190.610336,271.910400 191.142075,271.860352 
	C191.142075,268.919342 191.142075,265.978302 191.489655,262.238159 
M214.933487,264.628845 
	C212.796875,269.611664 213.152756,270.692169 216.591217,271.473511 
	C216.974380,269.435120 217.312088,267.397736 217.746643,265.381226 
	C218.451782,262.109222 217.009125,260.559448 213.288742,259.926117 
	C213.926361,261.586670 214.372498,262.748505 214.933487,264.628845 
M210.060272,265.469727 
	C209.848999,264.012939 209.637726,262.556152 209.316193,260.339172 
	C205.745895,264.920715 206.346832,270.575684 210.060883,271.233337 
	C210.060883,269.561646 210.060883,267.941589 210.060272,265.469727 
z"/>
<path fill="#FBFBFB" opacity="1.000000" stroke="none" 
	d="
M189.374390,215.589966 
	C196.446625,225.236145 203.298477,234.598465 210.784256,244.826981 
	C198.271790,244.826981 186.716293,244.921021 175.167404,244.687866 
	C173.954529,244.663376 172.554993,242.876419 171.625290,241.622955 
	C165.609787,233.512726 159.700684,225.323608 153.114426,216.278259 
	C153.114426,226.189041 153.114426,235.055466 153.114426,244.339172 
	C151.393555,244.578247 150.009277,244.770554 148.468216,244.984650 
	C148.253067,244.172638 147.949402,243.556000 147.947098,242.938263 
	C147.913330,233.939621 147.589264,224.925232 148.013107,215.946640 
	C148.408661,207.567062 144.847992,201.236755 139.299103,195.590302 
	C137.273178,193.528763 135.208694,191.505127 133.161819,189.464188 
	C133.376175,188.973312 133.590546,188.482452 133.804901,187.991577 
	C139.332214,187.991577 144.860153,187.939514 150.386673,188.005325 
	C156.692383,188.080414 163.935745,186.383453 169.032700,188.932999 
	C173.941360,191.388382 176.639359,198.273712 180.292984,203.224258 
	C183.258682,207.242691 186.201218,211.278183 189.374390,215.589966 
z"/>
<path fill="#F9F9F9" opacity="1.000000" stroke="none" 
	d="
M281.374695,239.746216 
	C281.373901,227.611343 281.172302,215.944855 281.447845,204.289642 
	C281.606201,197.590775 280.224396,192.399445 272.785370,190.788895 
	C272.185822,190.659103 271.632416,190.158447 271.150208,189.726669 
	C270.972748,189.567764 271.063538,189.109344 270.992523,188.385345 
	C287.954102,188.385345 304.870239,188.385345 321.786377,188.385345 
	C321.936066,188.688980 322.085724,188.992615 322.235413,189.296249 
	C321.131866,189.979584 320.105377,190.873718 318.911530,191.309937 
	C313.605286,193.248795 311.731506,197.075211 311.796631,202.553391 
	C311.960876,216.374313 311.851013,230.198502 311.851013,244.435623 
	C301.801880,244.435623 291.919647,244.435623 281.633545,244.435623 
	C281.552429,243.118652 281.463165,241.668991 281.374695,239.746216 
z"/>
<path fill="#FAFAFA" opacity="1.000000" stroke="none" 
	d="
M369.615570,292.989014 
	C369.087860,302.224701 368.593323,310.996185 368.100922,319.730255 
	C335.525665,319.730255 303.328705,319.730255 271.131744,319.730255 
	C270.981140,319.385071 270.830536,319.039856 270.679932,318.694672 
	C271.927338,317.996582 273.100800,317.065735 274.435303,316.641876 
	C279.460358,315.045868 281.494385,311.630341 281.390778,306.477295 
	C281.250854,299.514801 281.355988,292.547424 281.355988,285.288940 
	C291.592865,285.288940 301.471191,285.288940 311.783569,285.288940 
	C311.783569,295.436249 311.783569,305.497681 311.783569,315.784515 
	C323.319946,315.784515 334.432007,315.956635 345.534241,315.701660 
	C350.114899,315.596436 353.819092,313.052216 355.990265,308.978149 
	C359.496979,302.397827 362.694550,295.653290 366.077911,289.006226 
	C366.812195,287.563599 367.779724,286.239746 369.648743,285.305481 
	C369.648743,287.711945 369.648743,290.118408 369.615570,292.989014 
z"/>
<path fill="#FCFCFC" opacity="1.000000" stroke="none" 
	d="
M231.574783,320.730225 
	C230.263062,320.419067 228.996979,320.386230 228.534439,319.759949 
	C220.200439,308.475433 211.963486,297.119232 203.313141,285.239197 
	C215.985229,285.239197 227.862900,285.239197 240.018311,285.239197 
	C240.018311,296.918304 240.018311,308.625854 240.018311,320.732361 
	C237.236832,320.732361 234.615631,320.732361 231.574783,320.730225 
z"/>
<path fill="#EEEEEE" opacity="1.000000" stroke="none" 
	d="
M235.331390,224.999390 
	C235.320206,217.342682 235.418381,210.183517 235.268845,203.029556 
	C235.100143,194.959137 233.642746,193.224701 226.078003,191.073395 
	C224.674057,190.674149 223.329498,190.066071 221.957535,189.554382 
	C222.062393,189.155914 222.167252,188.757446 222.272110,188.358978 
	C231.750778,188.358978 241.229462,188.358978 250.708130,188.358978 
	C250.872009,188.622498 251.035873,188.886002 251.199738,189.149521 
	C249.838348,189.864929 248.548492,190.822205 247.102051,191.250061 
	C242.894165,192.494736 240.678452,195.092636 240.649673,199.554123 
	C240.571320,211.699768 240.439194,223.845093 240.339142,235.990616 
	C240.315964,238.804916 240.335724,241.619568 240.335724,244.630249 
	C238.590652,244.630249 237.179489,244.630249 235.331375,244.630249 
	C235.331375,238.093887 235.331375,231.796555 235.331390,224.999390 
z"/>
<path fill="#F5F5F5" opacity="1.000000" stroke="none" 
	d="
M147.897263,302.661011 
	C147.897369,296.708649 147.897369,291.220184 147.897369,285.357544 
	C149.497833,285.357544 150.985153,285.357544 152.857361,285.357544 
	C152.857361,291.632477 152.833481,297.762054 152.863022,303.891357 
	C152.906372,312.883575 153.653458,313.923035 161.971191,316.973999 
	C162.898636,317.314209 163.807739,317.722870 164.675827,318.191467 
	C164.861221,318.291534 164.831207,318.790680 165.000854,319.563416 
	C154.818802,319.563416 144.732285,319.563416 134.645782,319.563416 
	C134.511856,319.272583 134.377945,318.981750 134.244019,318.690918 
	C137.638611,317.184509 141.980453,316.492828 144.168533,313.948730 
	C146.480682,311.260406 146.740707,306.807159 147.897263,302.661011 
z"/>
<path fill="#EEEEEE" opacity="1.000000" stroke="none" 
	d="
M317.498962,265.542969 
	C318.994873,265.658142 320.073547,265.761505 321.152222,265.864868 
	C321.170197,266.134216 321.188171,266.403564 321.206146,266.672882 
	C319.432220,266.855316 317.658264,267.037781 315.895264,267.219086 
	C315.586365,270.063507 315.586365,270.063507 323.165192,271.716125 
	C319.298859,271.716125 316.855011,271.716125 314.142761,271.716125 
	C314.142761,268.281677 314.142761,264.803070 314.142761,261.098633 
	C315.242096,262.756653 316.161926,264.143921 317.498962,265.542969 
z"/>
<path fill="#ADADAD" opacity="1.000000" stroke="none" 
	d="
M191.315857,262.637726 
	C191.142075,265.978302 191.142075,268.919342 191.142075,271.860352 
	C190.610336,271.910400 190.078598,271.960449 189.546860,272.010498 
	C189.325256,269.007690 189.103638,266.004852 188.849457,262.560577 
	C187.902863,262.272614 186.692001,261.904266 185.481140,261.535919 
	C185.526062,261.234863 185.570969,260.933777 185.615891,260.632721 
	C188.630219,260.632721 191.644531,260.632721 194.658859,260.632721 
	C194.719131,260.917847 194.779419,261.202942 194.839706,261.488068 
	C193.723022,261.738098 192.606339,261.988129 191.315857,262.637726 
z"/>
<path fill="#525252" opacity="1.000000" stroke="none" 
	d="
M296.128204,271.046082 
	C294.322357,271.046082 292.516510,271.046082 290.472900,271.046082 
	C290.472900,268.086121 290.472900,264.988922 290.472900,260.611664 
	C292.346130,262.633423 293.571106,263.955536 294.601562,265.668884 
	C293.776184,266.080200 293.145386,266.100281 292.514557,266.120361 
	C292.695282,266.452667 292.876038,266.784973 293.001587,267.480591 
	C294.007050,268.911285 295.067627,269.978668 296.128204,271.046082 
z"/>
<path fill="#101010" opacity="1.000000" stroke="none" 
	d="
M214.876053,264.269592 
	C214.372498,262.748505 213.926361,261.586670 213.288742,259.926117 
	C217.009125,260.559448 218.451782,262.109222 217.746643,265.381226 
	C217.312088,267.397736 216.974380,269.435120 216.591217,271.473511 
	C213.152756,270.692169 212.796875,269.611664 214.876053,264.269592 
z"/>
<path fill="#101010" opacity="1.000000" stroke="none" 
	d="
M210.060577,265.895630 
	C210.060883,267.941589 210.060883,269.561646 210.060883,271.233337 
	C206.346832,270.575684 205.745895,264.920715 209.316193,260.339172 
	C209.637726,262.556152 209.848999,264.012939 210.060577,265.895630 
z"/>
<path fill="#D5D5D5" opacity="1.000000" stroke="none" 
	d="
M293.056763,267.117279 
	C292.876038,266.784973 292.695282,266.452667 292.514557,266.120361 
	C293.145386,266.100281 293.776184,266.080200 294.733215,265.978821 
	C296.308014,265.409180 297.556641,264.920837 299.812103,264.038666 
	C299.345551,266.838776 298.948029,269.224792 298.195923,270.977417 
	C299.417572,264.566406 294.908630,267.811798 293.056763,267.117279 
z"/>
<path fill="#101010" opacity="1.000000" stroke="none" 
	d="
M293.001587,267.480591 
	C294.908630,267.811798 299.417572,264.566406 297.909973,270.712280 
	C297.978516,271.080505 297.989868,271.002197 297.714447,270.837921 
	C297.220825,270.769470 297.002625,270.865295 296.784424,270.961090 
	C296.784424,270.961090 296.458771,271.030579 296.293488,271.038330 
	C295.067627,269.978668 294.007050,268.911285 293.001587,267.480591 
z"/>
<path fill="#D5D5D5" opacity="1.000000" stroke="none" 
	d="
M296.925873,271.261108 
	C297.002625,270.865295 297.220825,270.769470 297.753662,270.843292 
	C298.086609,271.245850 298.104919,271.478760 298.123230,271.711670 
	C297.771271,271.661469 297.419281,271.611267 296.925873,271.261108 
z"/>
</svg>