<?xml version="1.0" standalone="no"?>
<!DOCTYPE svg PUBLIC "-//W3C//DTD SVG 20010904//EN"
 "http://www.w3.org/TR/2001/REC-SVG-20010904/DTD/svg10.dtd">
<svg version="1.0" xmlns="http://www.w3.org/2000/svg"
 width="500.000000pt" height="500.000000pt" viewBox="0 0 500.000000 500.000000"
 preserveAspectRatio="xMidYMid meet">

<g transform="translate(0.000000,500.000000) scale(0.100000,-0.100000)"
fill="#000000" stroke="none">
<path d="M0 2500 l0 -2500 2500 0 2500 0 0 2500 0 2500 -2500 0 -2500 0 0
-2500z m1887 350 c111 -151 203 -278 203 -283 0 -4 -82 -6 -182 -5 l-181 3
-101 138 -101 139 -3 -141 -3 -141 -24 0 -25 0 0 180 c0 171 -1 183 -24 228
-13 26 -45 67 -70 92 -25 24 -46 50 -46 57 0 11 36 13 177 11 l178 -3 202
-275z m611 268 c-2 -6 -18 -16 -36 -22 -67 -23 -67 -21 -70 -292 -4 -245 -4
-245 -25 -242 -22 3 -22 6 -27 244 -6 274 -5 273 -86 293 -82 21 -49 31 102
31 108 0 145 -3 142 -12z m712 1 c0 -5 -15 -16 -34 -24 -65 -27 -66 -33 -66
-297 l0 -239 -152 3 -153 3 -5 250 c-3 138 -7 251 -8 253 -1 2 -22 12 -47 23
-25 11 -45 24 -45 29 0 6 100 10 255 10 172 0 255 -3 255 -11z m-1789 -756
l34 -48 6 50 6 50 1 -62 c1 -35 -1 -63 -5 -63 -5 0 -21 19 -38 43 l-30 42 -3
-42 c-4 -62 -22 -53 -22 10 0 45 5 67 15 67 1 0 17 -21 36 -47z m278 -59 c-32
-39 -89 1 -89 63 0 48 18 41 22 -8 6 -84 66 -75 70 10 l2 46 3 -48 c3 -28 -1
-55 -8 -63z m236 96 c3 -5 -3 -10 -14 -10 -18 0 -21 -6 -21 -50 0 -27 -4 -50
-10 -50 -5 0 -10 23 -10 50 0 38 -4 50 -15 50 -8 0 -15 5 -15 10 0 6 18 10 39
10 22 0 43 -4 46 -10z m206 0 c21 -12 25 -40 7 -58 -8 -8 -8 -15 2 -27 7 -8
10 -18 7 -21 -3 -3 -12 3 -19 15 -18 29 -55 28 -61 -1 -2 -13 -5 5 -6 40 -1
60 0 62 25 62 14 0 34 -5 45 -10z m367 -103 l37 -4 -42 -1 -43 -2 2 63 2 62 3
-57 4 -57 37 -4z m472 93 c4 -6 6 -30 6 -53 l-1 -42 -42 -3 -43 -3 0 62 0 62
37 -6 c20 -4 39 -11 43 -17z m230 10 c0 -5 -16 -10 -36 -10 -49 0 -44 -32 6
-41 l35 -6 -37 -2 c-30 -1 -38 -5 -38 -20 0 -15 8 -21 38 -24 l37 -4 -42 -1
-43 -2 0 60 0 60 40 0 c22 0 40 -4 40 -10z m-892 -55 c1 -31 -3 -55 -8 -55 -6
0 -10 25 -10 55 0 30 4 55 8 55 4 0 9 -25 10 -55z m428 -3 c13 -29 19 -52 15
-52 -5 0 -11 7 -15 15 -8 21 -63 19 -75 -2 -5 -10 -11 -16 -14 -13 -8 10 43
112 55 108 6 -2 21 -27 34 -56z m624 9 c0 -49 1 -50 33 -54 28 -3 26 -4 -10
-5 l-43 -2 0 55 c0 30 5 55 10 55 6 0 10 -22 10 -49z m246 -11 c8 0 14 -4 14
-10 0 -5 -7 -10 -15 -10 -8 0 -16 -8 -16 -17 -1 -17 -2 -17 -6 0 -2 9 -11 17
-19 17 -8 0 -14 5 -14 10 0 6 7 10 15 10 8 0 16 8 16 18 1 16 2 16 6 0 2 -10
11 -18 19 -18z m-2096 -309 c0 -146 6 -161 74 -184 22 -8 42 -19 44 -25 3 -9
-38 -12 -152 -12 -88 0 -156 4 -156 9 0 5 22 17 49 26 80 26 85 37 89 186 4
129 4 129 28 129 l24 0 0 -129z m870 -51 l0 -180 -53 0 -54 0 -131 180 -131
180 184 0 185 0 0 -180z m720 25 l0 -155 170 0 c192 0 221 7 263 62 15 19 49
82 77 141 27 59 55 107 61 107 10 0 8 -75 -7 -277 l-6 -73 -484 0 c-319 0
-484 3 -484 10 0 6 18 17 40 26 22 9 45 25 50 35 6 10 10 76 10 148 l0 131
155 0 155 0 0 -155z m-817 -612 c-13 -2 -23 -9 -23 -14 0 -5 10 -10 23 -10
l22 -2 -22 -4 c-12 -2 -24 -12 -26 -21 -3 -9 -5 0 -6 21 -1 34 1 37 27 36 23
-2 24 -2 5 -6z m158 -9 c17 -21 0 -49 -32 -49 -24 0 -36 23 -25 51 7 19 40 18
57 -2z m144 -3 c10 -31 -5 -52 -34 -49 -26 3 -38 26 -27 54 8 21 53 18 61 -5z
m140 -16 c0 -25 -4 -30 -27 -33 -26 -3 -28 -1 -28 33 0 34 2 36 28 33 23 -3
27 -8 27 -33z"/>
<path d="M2080 2370 c0 -18 5 -21 33 -18 20 2 32 8 32 18 0 10 -12 16 -32 18
-28 3 -33 0 -33 -18z"/>
<path d="M2912 2373 c2 -12 12 -18 28 -18 16 0 26 6 28 18 3 13 -3 17 -28 17
-25 0 -31 -4 -28 -17z"/>
<path d="M2910 2320 c0 -18 5 -21 33 -18 20 2 32 8 32 18 0 10 -12 16 -32 18
-28 3 -33 0 -33 -18z"/>
<path d="M2697 2360 c-4 -15 0 -20 13 -20 13 0 17 5 13 20 -3 11 -9 20 -13 20
-4 0 -10 -9 -13 -20z"/>
<path d="M2400 1365 c0 -22 4 -26 23 -23 14 2 22 10 22 23 0 13 -8 21 -22 23
-19 3 -23 -1 -23 -23z"/>
<path d="M2544 1375 c-4 -9 -2 -21 4 -27 15 -15 44 -1 40 19 -4 23 -36 29 -44
8z"/>
<path d="M2690 1365 c0 -20 4 -26 18 -23 9 2 17 12 17 23 0 11 -8 21 -17 23
-14 3 -18 -3 -18 -23z"/>
</g>
</svg>
