<svg xmlns="http://www.w3.org/2000/svg" viewBox="0 0 234.39 28.26"><defs><style>.cls-1{fill:#f4f7f8;}</style></defs><g id="Capa_2" data-name="Capa 2"><g id="Capa_1-2" data-name="Capa 1"><g id="loho_hz" data-name="loho hz"><path class="cls-1" d="M68.48,19.49H86.56v3.14h-19c-3.71,0-5.19-1.88-5.19-4.89V5.63h4.71V17.74c0,1.12.63,1.75,1.4,1.75"></path><path class="cls-1" d="M109.72,22.61V15.37H94.94v7.24H90.19V10.52c0-2.76,1.7-4.9,5.09-4.9h14.08c3.41,0,5.09,2.14,5.09,4.9V22.61ZM96.37,8.68c-1,0-1.43.75-1.43,1.84v1.82h14.78V10.52c0-1.09-.46-1.84-1.48-1.84Z"></path><path class="cls-1" d="M142.48,10.54V22.59h-5v-12c0-.87-.43-1.72-1.43-1.72h-13V22.59h-5V5.67h19.24a4.77,4.77,0,0,1,5.16,4.87"></path><path class="cls-1" d="M165.21,5.63c3.3,0,4.75,2.2,4.75,5v6.93c0,2.86-1.45,5-4.75,5H146.12v-17Zm.27,11.94V10.64c0-1.11-.44-1.77-1.5-1.77H150.6V19.39H164c1.06,0,1.5-.7,1.5-1.82"></path><rect class="cls-1" x="173.6" y="5.62" width="4.87" height="17.01"></rect><path class="cls-1" d="M201.63,22.61V15.37H186.85v7.24H182.1V10.52c0-2.76,1.7-4.9,5.09-4.9h14.08c3.42,0,5.09,2.14,5.09,4.9V22.61ZM188.28,8.68c-1,0-1.43.75-1.43,1.84v1.82h14.78V10.52c0-1.09-.46-1.84-1.47-1.84Z"></path><path class="cls-1" d="M234.39,10.54V22.59h-5v-12c0-.87-.43-1.72-1.43-1.72H215V22.59h-5V5.67h19.24a4.77,4.77,0,0,1,5.16,4.87"></path><path class="cls-1" d="M7.63,22.62V6H0V28.26H30.9c4.35,0,6.77-2.29,7.57-5.64H7.63Z"></path><path class="cls-1" d="M38.76,7.83V22.28h.44a7.18,7.18,0,0,0,7.19-7.18v-8A7.08,7.08,0,0,0,39.31,0H15.49C11.13,0,8.72,2.29,7.92,5.64H36.58a2.19,2.19,0,0,1,2.18,2.19"></path></g></g></g></svg>